<?xml version="1.0" encoding="utf-8"?>
<!-- Generator: Adobe Illustrator 27.5.0, SVG Export Plug-In . SVG Version: 6.00 Build 0)  -->
<svg version="1.1" xmlns="http://www.w3.org/2000/svg" xmlns:xlink="http://www.w3.org/1999/xlink" x="0px" y="0px"
	 viewBox="0 0 500 500" style="enable-background:new 0 0 500 500;" xml:space="preserve">
<g id="BACKGROUND">
</g>
<g id="OBJECTS">
	<g>
		<circle style="fill:#6B8CF4;" cx="250" cy="250" r="219.11"/>
		<path style="fill:#FFFFFF;" d="M166.133,96.457v94.82l82.379-3.089v-5.459V93.367L166.133,96.457z M177.468,107.374l59.71-2.239
			v72.135l-59.71,2.239V107.374z"/>
		<g>
			<g>
				<defs>
					<circle id="SVGID_1_" cx="250" cy="250" r="219.11"/>
				</defs>
				<clipPath id="SVGID_00000116917026811820543900000009955086409775163828_">
					<use xlink:href="#SVGID_1_"  style="overflow:visible;"/>
				</clipPath>
				<g style="clip-path:url(#SVGID_00000116917026811820543900000009955086409775163828_);">
					<path style="fill:#313384;" d="M168.832,251.329c-8.805-8.638-18.647-14.135-47.925-15.1
						c-29.278-0.965-60.019,4.702-73.926,29.638c-13.907,24.936,2.196,78.046,5.855,122.332c3.66,44.286-11.711,68.088,4.392,77.439
						c16.103,9.351,69.062,1.525,100.405-8.447c31.344-9.972,44.533-19.04,46.355-23.007
						C205.812,430.217,190.406,272.495,168.832,251.329z"/>
					<g>
						<polygon style="fill:#506EE0;" points="427.866,72.905 271.182,79.191 271.182,70.465 427.598,63.665 						"/>
						<polygon style="fill:#506EE0;" points="428.438,92.646 271.182,97.826 271.182,89.04 428.168,83.338 						"/>
						<polygon style="fill:#506EE0;" points="429.014,112.532 271.182,116.59 271.182,107.744 428.742,103.156 						"/>
						<polygon style="fill:#506EE0;" points="429.595,132.564 271.182,135.484 271.182,126.576 429.321,123.119 						"/>
						<polygon style="fill:#506EE0;" points="430.18,152.744 271.182,154.51 271.182,145.54 429.904,143.229 						"/>
						<polygon style="fill:#506EE0;" points="430.769,173.074 271.182,173.668 271.182,164.636 430.491,163.488 						"/>
						<polygon style="fill:#506EE0;" points="431.363,193.555 271.182,192.961 271.182,183.865 431.083,183.898 						"/>
						<polygon style="fill:#506EE0;" points="431.961,214.189 271.182,212.389 271.182,203.229 431.679,204.46 						"/>
						<polygon style="fill:#506EE0;" points="432.563,234.978 271.182,231.955 271.182,222.73 432.279,225.175 						"/>
						<polygon style="fill:#506EE0;" points="433.171,255.923 271.182,251.659 271.182,242.369 432.884,246.047 						"/>
						<polygon style="fill:#506EE0;" points="433.782,277.026 271.182,271.503 271.182,262.147 433.494,267.075 						"/>
						<polygon style="fill:#506EE0;" points="434.398,298.289 271.182,291.488 271.182,282.066 434.108,288.263 						"/>
						<path style="fill:#313384;" d="M254.177,367.122c-3.372,1.918-7.035,3.309-10.817,4.164
							c-3.572,0.807-7.258,0.582-10.787,1.323c-5.937,1.246-14.423-0.263-19.007-4.39c-5.792-5.214-6.041-14.109-5.32-21.869
							c0.408-4.388,1.062-8.908,3.005-12.912c0.89-1.835,2.368-3.305,3.206-5.139c2.189-4.792,5.539-8.895,9.384-12.519
							c5.871-5.532,13.203-9.94,16.867-17.126c2.745-5.383,3.477-12.315,8.486-15.694c4.205-2.836,10.301-2.201,13.927-5.747
							c1.898-1.855,2.725-4.507,3.7-6.976c3.75-9.491,10.711-17.68,19.475-22.909c3.645-2.175,8.798-3.657,11.753-0.609
							c1.516,1.564,1.925,3.908,1.82,6.084c-0.54,11.162-12.136,19.411-12.784,30.567c-0.38,6.551,3.05,13.687-0.26,19.353
							c-2.04,3.492-6.111,5.269-8.685,8.388c-4.846,5.87-3.228,14.455-3.474,22.063
							C274.219,346.976,266.181,360.295,254.177,367.122z"/>
						<path style="fill:none;stroke:#FFFFFF;stroke-miterlimit:10;" d="M291.585,255.923
							c-28.306,35.624-57.53,73.208-65.774,117.956c-0.823,4.467-1.457,9.065-3.537,13.102"/>
					</g>
					<path style="fill:#CFECFF;" d="M474.309,364.127V172.895c0,0-8.618,0-38.454,0c-29.836,0-74.938,34.004-74.938,78.775
						s0,101.213,0,101.213L474.309,364.127z"/>
					<path style="fill:#DEF2FF;" d="M474.309,356.302l-131.835-4.038l-106.386,24.715c31.028,17.913,63.543,34.76,97.543,46.732
						l3.178,0.174L474.309,356.302z"/>
					<g>
						<polygon style="fill:#6B8CF4;" points="454.19,278.873 454.19,357.029 438.322,364.44 438.322,284.833 						"/>
						<polygon style="fill:#B3E1FF;" points="438.322,284.833 391.85,282.734 391.85,362.539 438.322,364.44 						"/>
						<ellipse style="fill:#313384;" cx="446.823" cy="344.531" rx="4.534" ry="7.733"/>
						<polygon style="fill:#4868F1;" points="454.19,278.873 410.552,275.473 410.552,283.578 438.322,284.833 						"/>
					</g>
					<g>
						<path style="fill:#313384;" d="M350.093,367.487l-23.19-2.502c-0.721-0.078-1.451-0.033-2.157,0.133l-44.044,10.325
							l-20.109,2.305v2.409l48.578,4.429c0.854,0.078,1.715-0.016,2.533-0.276l49.214-15.654v-2.409L350.093,367.487z"/>
						<path style="fill:#4A60DE;" d="M311.703,381.9l49.214-15.654l-34.013-3.67c-0.721-0.078-1.451-0.033-2.157,0.132
							l-64.154,15.038l48.578,4.429C310.024,382.253,310.885,382.159,311.703,381.9z"/>
						<g>
							<path style="fill:#7590FF;" d="M351.807,366.455L351.807,366.455c0.721-0.194,1.582-0.321,1.924-0.286l3.952,0.408
								c0.337,0.035,0.039,0.219-0.668,0.412l0,0c-0.709,0.193-1.562,0.323-1.902,0.288l-3.991-0.406
								C350.775,366.836,351.083,366.649,351.807,366.455z"/>
							<path style="fill:#7590FF;" d="M347.432,367.629L347.432,367.629c0.735-0.197,1.611-0.328,1.959-0.293l4.017,0.404
								c0.343,0.034,0.038,0.221-0.683,0.418l0,0c-0.723,0.197-1.591,0.329-1.937,0.295l-4.057-0.402
								C346.381,368.016,346.695,367.827,347.432,367.629z"/>
							<path style="fill:#7590FF;" d="M342.974,368.826L342.974,368.826c0.749-0.201,1.641-0.336,1.995-0.301l4.083,0.401
								c0.348,0.034,0.037,0.224-0.697,0.424l0,0c-0.737,0.201-1.62,0.336-1.972,0.303l-4.125-0.398
								C341.901,369.219,342.223,369.027,342.974,368.826z"/>
							<path style="fill:#7590FF;" d="M338.429,370.045L338.429,370.045c0.764-0.205,1.673-0.343,2.032-0.309l4.152,0.396
								c0.354,0.034,0.036,0.226-0.712,0.43l0,0c-0.751,0.205-1.651,0.344-2.009,0.31l-4.194-0.394
								C337.335,370.445,337.663,370.251,338.429,370.045z"/>
							<path style="fill:#7590FF;" d="M333.796,371.289L333.796,371.289c0.779-0.209,1.705-0.35,2.07-0.316l4.223,0.392
								c0.36,0.034,0.035,0.229-0.728,0.437l0,0c-0.766,0.209-1.682,0.351-2.047,0.318l-4.266-0.389
								C332.679,371.696,333.014,371.498,333.796,371.289z"/>
							<path style="fill:#7590FF;" d="M329.07,372.557L329.07,372.557c0.794-0.213,1.738-0.358,2.109-0.325l4.295,0.388
								c0.366,0.033,0.034,0.231-0.744,0.443l0,0c-0.781,0.213-1.715,0.359-2.085,0.326l-4.34-0.385
								C327.93,372.971,328.273,372.77,329.07,372.557z"/>
							<path style="fill:#7590FF;" d="M324.25,373.85L324.25,373.85c0.81-0.217,1.772-0.366,2.15-0.333l4.37,0.383
								c0.373,0.033,0.033,0.234-0.76,0.45l0,0c-0.796,0.217-1.749,0.367-2.125,0.335l-4.416-0.38
								C323.087,374.272,323.438,374.068,324.25,373.85z"/>
							<path style="fill:#7590FF;" d="M319.333,375.169L319.333,375.169c0.827-0.222,1.807-0.375,2.192-0.342l4.446,0.378
								c0.379,0.032,0.032,0.237-0.777,0.457l0,0c-0.812,0.221-1.783,0.376-2.166,0.344l-4.494-0.374
								C318.145,375.599,318.504,375.392,319.333,375.169z"/>
							<path style="fill:#7590FF;" d="M314.316,376.516L314.316,376.516c0.844-0.226,1.843-0.383,2.235-0.351l4.525,0.372
								c0.386,0.032,0.031,0.239-0.795,0.465l0,0c-0.829,0.226-1.818,0.384-2.208,0.353l-4.574-0.369
								C313.103,376.953,313.47,376.743,314.316,376.516z"/>
							<path style="fill:#7590FF;" d="M309.196,377.89L309.196,377.89c0.861-0.231,1.88-0.392,2.279-0.36l4.607,0.367
								c0.393,0.031,0.03,0.242-0.813,0.472l0,0c-0.846,0.23-1.855,0.393-2.252,0.362l-4.657-0.363
								C307.957,378.336,308.332,378.122,309.196,377.89z"/>
							<path style="fill:#7590FF;" d="M303.969,379.293L303.969,379.293c0.879-0.236,1.919-0.401,2.325-0.37l4.69,0.361
								c0.4,0.031,0.029,0.245-0.832,0.48l0,0c-0.863,0.235-1.892,0.402-2.297,0.372l-4.742-0.357
								C302.703,379.747,303.087,379.529,303.969,379.293z"/>
							<path style="fill:#7590FF;" d="M343.516,365.606L343.516,365.606c0.744-0.195,1.63-0.323,1.981-0.287l4.057,0.419
								c0.346,0.036,0.037,0.221-0.692,0.415l0,0c-0.732,0.195-1.609,0.324-1.959,0.288l-4.097-0.417
								C342.451,365.989,342.77,365.801,343.516,365.606z"/>
							<path style="fill:#7590FF;" d="M339.004,366.787L339.004,366.787c0.758-0.199,1.661-0.33,2.018-0.294l4.124,0.415
								c0.352,0.035,0.036,0.224-0.707,0.422l0,0c-0.746,0.198-1.64,0.331-1.995,0.296l-4.166-0.413
								C337.917,367.177,338.243,366.986,339.004,366.787z"/>
							<path style="fill:#7590FF;" d="M334.403,367.991L334.403,367.991c0.773-0.202,1.693-0.337,2.056-0.301l4.194,0.411
								c0.358,0.035,0.035,0.226-0.723,0.428l0,0c-0.76,0.202-1.671,0.338-2.032,0.303l-4.237-0.409
								C333.294,368.388,333.627,368.195,334.403,367.991z"/>
							<path style="fill:#7590FF;" d="M329.712,369.22L329.712,369.22c0.788-0.206,1.725-0.345,2.094-0.309l4.266,0.407
								c0.364,0.035,0.034,0.229-0.738,0.434l0,0c-0.775,0.206-1.703,0.346-2.07,0.311l-4.31-0.405
								C328.58,369.623,328.921,369.427,329.712,369.22z"/>
							<path style="fill:#7590FF;" d="M324.927,370.472L324.927,370.472c0.804-0.21,1.759-0.352,2.134-0.317l4.339,0.403
								c0.37,0.034,0.033,0.232-0.755,0.441l0,0c-0.79,0.21-1.736,0.354-2.11,0.319l-4.385-0.4
								C323.772,370.883,324.12,370.683,324.927,370.472z"/>
							<path style="fill:#7590FF;" d="M320.047,371.75L320.047,371.75c0.82-0.215,1.793-0.36,2.176-0.326l4.415,0.398
								c0.377,0.034,0.032,0.234-0.771,0.448v0c-0.806,0.214-1.77,0.361-2.15,0.328l-4.462-0.396
								C318.868,372.168,319.224,371.965,320.047,371.75z"/>
							<path style="fill:#7590FF;" d="M315.068,373.053L315.068,373.053c0.837-0.219,1.829-0.369,2.218-0.335l4.493,0.393
								c0.383,0.034,0.031,0.237-0.789,0.455l0,0c-0.822,0.219-1.805,0.37-2.192,0.336l-4.541-0.391
								C313.864,373.479,314.228,373.273,315.068,373.053z"/>
							<path style="fill:#7590FF;" d="M309.987,374.383L309.987,374.383c0.854-0.224,1.866-0.377,2.262-0.344l4.573,0.388
								c0.39,0.033,0.03,0.24-0.807,0.462l0,0c-0.839,0.223-1.841,0.378-2.235,0.345l-4.623-0.385
								C308.758,374.817,309.13,374.608,309.987,374.383z"/>
							<path style="fill:#7590FF;" d="M304.801,375.741L304.801,375.741c0.872-0.228,1.904-0.386,2.307-0.353l4.656,0.383
								c0.397,0.033,0.029,0.243-0.825,0.47l0,0c-0.856,0.228-1.878,0.387-2.279,0.355l-4.707-0.38
								C303.545,376.183,303.926,375.97,304.801,375.741z"/>
							<path style="fill:#7590FF;" d="M299.507,377.127L299.507,377.127c0.89-0.233,1.943-0.395,2.353-0.362l4.741,0.377
								c0.404,0.032,0.027,0.245-0.844,0.477l0,0c-0.874,0.233-1.916,0.396-2.325,0.364l-4.793-0.374
								C298.224,377.577,298.613,377.361,299.507,377.127z"/>
							<path style="fill:#7590FF;" d="M294.101,378.542L294.101,378.542c0.909-0.238,1.983-0.404,2.401-0.372l4.828,0.371
								c0.412,0.032,0.026,0.249-0.863,0.485h0c-0.893,0.237-1.956,0.405-2.372,0.374l-4.882-0.367
								C292.79,379.001,293.188,378.781,294.101,378.542z"/>
							<path style="fill:#7590FF;" d="M335.003,364.733L335.003,364.733c0.768-0.196,1.681-0.324,2.041-0.287l4.166,0.43
								c0.355,0.037,0.035,0.224-0.717,0.419l0,0c-0.755,0.196-1.659,0.325-2.018,0.289l-4.208-0.428
								C333.902,365.12,334.233,364.93,335.003,364.733z"/>
							<path style="fill:#7590FF;" d="M330.345,365.922L330.345,365.922c0.783-0.2,1.713-0.331,2.079-0.295l4.236,0.427
								c0.361,0.036,0.034,0.227-0.733,0.426l0,0c-0.769,0.2-1.691,0.333-2.056,0.297l-4.28-0.424
								C329.222,366.315,329.56,366.123,330.345,365.922z"/>
							<path style="fill:#7590FF;" d="M325.596,367.135L325.596,367.135c0.798-0.204,1.746-0.339,2.119-0.302l4.309,0.423
								c0.368,0.036,0.033,0.229-0.749,0.432l0,0c-0.785,0.203-1.723,0.34-2.095,0.304l-4.354-0.42
								C324.45,367.535,324.795,367.339,325.596,367.135z"/>
							<path style="fill:#7590FF;" d="M320.752,368.371L320.752,368.371c0.814-0.208,1.78-0.346,2.16-0.31l4.384,0.418
								c0.374,0.036,0.032,0.232-0.765,0.439h0c-0.8,0.208-1.757,0.348-2.135,0.312l-4.43-0.416
								C319.582,368.779,319.935,368.58,320.752,368.371z"/>
							<path style="fill:#7590FF;" d="M315.81,369.633L315.81,369.633c0.831-0.212,1.815-0.354,2.202-0.318l4.461,0.414
								c0.38,0.035,0.031,0.234-0.783,0.446l0,0c-0.816,0.212-1.791,0.355-2.176,0.32l-4.508-0.411
								C314.616,370.047,314.977,369.845,315.81,369.633z"/>
							<path style="fill:#7590FF;" d="M310.768,370.92L310.768,370.92c0.848-0.216,1.852-0.362,2.245-0.327l4.54,0.41
								c0.387,0.035,0.03,0.237-0.8,0.453l0,0c-0.833,0.216-1.827,0.364-2.218,0.329l-4.589-0.407
								C309.549,371.342,309.918,371.137,310.768,370.92z"/>
							<path style="fill:#7590FF;" d="M305.623,372.233L305.623,372.233c0.865-0.221,1.889-0.371,2.289-0.336l4.621,0.405
								c0.394,0.034,0.029,0.24-0.818,0.46l0,0c-0.85,0.22-1.863,0.372-2.262,0.338l-4.672-0.402
								C304.377,372.663,304.755,372.455,305.623,372.233z"/>
							<path style="fill:#7590FF;" d="M300.371,373.574L300.371,373.574c0.883-0.225,1.927-0.38,2.335-0.345l4.705,0.4
								c0.401,0.034,0.027,0.243-0.837,0.467l0,0c-0.867,0.225-1.901,0.381-2.307,0.347l-4.757-0.396
								C299.098,374.012,299.484,373.8,300.371,373.574z"/>
							<path style="fill:#7590FF;" d="M295.008,374.943L295.008,374.943c0.902-0.23,1.967-0.389,2.382-0.354l4.791,0.394
								c0.409,0.034,0.026,0.246-0.856,0.475l0,0c-0.885,0.23-1.94,0.39-2.353,0.356l-4.845-0.391
								C293.708,375.389,294.103,375.174,295.008,374.943z"/>
							<path style="fill:#7590FF;" d="M289.532,376.341L289.532,376.341c0.921-0.235,2.008-0.398,2.431-0.364l4.88,0.388
								c0.416,0.033,0.025,0.249-0.876,0.483l0,0c-0.904,0.235-1.98,0.399-2.401,0.366l-4.935-0.385
								C288.203,376.796,288.608,376.577,289.532,376.341z"/>
							<path style="fill:#7590FF;" d="M283.938,377.769L283.938,377.769c0.941-0.24,2.05-0.407,2.481-0.374l4.972,0.382
								c0.424,0.033,0.023,0.252-0.897,0.491l0,0c-0.924,0.24-2.022,0.408-2.45,0.376l-5.029-0.378
								C282.58,378.233,282.994,378.01,283.938,377.769z"/>
							<path style="fill:#7590FF;" d="M326.257,363.837L326.257,363.837c0.792-0.197,1.733-0.326,2.104-0.287l4.279,0.442
								c0.365,0.038,0.033,0.227-0.743,0.423l0,0c-0.779,0.197-1.711,0.327-2.08,0.289l-4.324-0.44
								C325.119,364.227,325.462,364.035,326.257,363.837z"/>
							<path style="fill:#7590FF;" d="M321.448,365.034L321.448,365.034c0.808-0.201,1.767-0.333,2.144-0.295l4.353,0.438
								c0.371,0.037,0.032,0.23-0.76,0.43l0,0c-0.794,0.201-1.744,0.334-2.119,0.297l-4.399-0.436
								C320.287,365.43,320.638,365.235,321.448,365.034z"/>
							<path style="fill:#7590FF;" d="M316.544,366.254L316.544,366.254c0.824-0.205,1.802-0.341,2.185-0.303l4.429,0.435
								c0.378,0.037,0.031,0.232-0.776,0.436l0,0c-0.81,0.205-1.778,0.342-2.16,0.305l-4.476-0.432
								C315.359,366.657,315.717,366.46,316.544,366.254z"/>
							<path style="fill:#7590FF;" d="M294.002,371.863l13.774-3.427c2.893-0.72,6.291-1.195,7.613-1.069l1.138,0.109
								c1.313,0.125,0.1,0.802-2.733,1.518l-13.484,3.411c-3.023,0.765-6.654,1.296-8.082,1.177l-1.238-0.103
								C289.552,373.359,290.913,372.632,294.002,371.863z"/>
							<path style="fill:#7590FF;" d="M284.925,374.122L284.925,374.122c0.933-0.232,2.033-0.391,2.461-0.356l4.933,0.406
								c0.421,0.035,0.023,0.249-0.889,0.48l0,0c-0.916,0.232-2.005,0.392-2.431,0.358l-4.989-0.402
								C283.578,374.573,283.988,374.355,284.925,374.122z"/>
							<path style="fill:#7590FF;" d="M279.258,375.532L279.258,375.532c0.953-0.237,2.077-0.401,2.512-0.366l5.026,0.4
								c0.428,0.034,0.022,0.252-0.91,0.488l0,0c-0.936,0.237-2.047,0.402-2.481,0.368l-5.084-0.396
								C277.881,375.991,278.302,375.77,279.258,375.532z"/>
							<path style="fill:#7590FF;" d="M273.468,376.973L273.468,376.973c0.974-0.242,2.121-0.41,2.565-0.376l5.122,0.394
								c0.437,0.033,0.021,0.255-0.932,0.496l0,0c-0.956,0.242-2.091,0.412-2.533,0.378l-5.182-0.39
								C272.06,377.441,272.491,377.216,273.468,376.973z"/>
						</g>
					</g>
					<path style="fill:#FFBBCC;" d="M340.254,367.799c0.068,0.839-0.17,1.553-0.601,2.12c-1.043,1.36-3.196,1.938-4.84,1.632
						c-2.063-0.385-3.831-1.644-5.599-2.777c-7.639-4.885-16.639-7.639-25.707-7.866c0.34,0,0.963,0.51,1.281,0.669
						c0.465,0.238,0.941,0.465,1.417,0.68c0.952,0.419,1.927,0.805,2.924,1.156c2.006,0.691,3.99,1.371,5.973,2.142
						c1.258,0.476,2.562,0.997,3.446,1.995c0.895,0.997,1.224,2.641,0.363,3.672c-0.487,0.601-1.258,0.873-2.006,1.077
						c-2.573,0.703-5.248,0.839-7.9,0.635c-7.991-0.601-15.596-4.024-23.678-3.729c-0.941,0.034-1.859,0.283-2.777,0.295
						c-3.14,0.045-6.291-0.091-9.43-0.147c-7.741-0.147-15.494-0.317-23.236-0.544c-7.719-0.227-15.438-0.487-23.156-0.918
						c-5.305-0.295-10.677-0.521-15.925-1.394c-15.302-2.55-13.103-2.063-20.992-17.772c-7.889-15.721-8.501-27.634-8.501-27.634
						l26.715-0.997l9.272-0.351l5.35,17.002l65.808,11.98c0.782-0.249,4.16-2.902,4.953-3.14c3.741-1.088,7.526-2.176,11.425-1.961
						c1.995,0.113,3.99,0.329,5.962,0.635c4.863,0.771,9.498,1.825,13.59,4.591c3.151,2.131,6.291,4.318,9.124,6.869
						c1.371,1.236,2.686,2.562,3.706,4.103c0.895,1.337,1.564,2.822,1.984,4.375c0.193,0.737,0.272,1.507,0.555,2.221
						C339.937,366.881,340.209,367.289,340.254,367.799z"/>
					<path style="fill:#E2A0B8;" d="M339.653,369.919c-1.043,1.36-3.196,1.938-4.84,1.632c-2.063-0.385-3.831-1.644-5.599-2.777
						c-7.639-4.885-16.639-7.639-25.707-7.866c0.34,0,0.963,0.51,1.281,0.669c0.465,0.238,0.941,0.465,1.417,0.68
						c0.952,0.419,1.927,0.805,2.924,1.156c2.006,0.691,3.99,1.371,5.973,2.142c1.258,0.476,2.562,0.997,3.446,1.995
						c0.895,0.997,1.224,2.641,0.363,3.672c-0.487,0.601-1.258,0.873-2.006,1.077c-2.573,0.703-5.248,0.839-7.9,0.635
						c-7.991-0.601-15.596-4.024-23.678-3.729c-0.941,0.034-1.859,0.283-2.777,0.295c-3.14,0.045-6.291-0.091-9.43-0.147
						c-7.741-0.147-15.494-0.317-23.236-0.544c-7.719-0.227-15.438-0.487-23.156-0.918c-5.305-0.295-10.677-0.521-15.925-1.394
						c-15.302-2.55-13.103-2.063-20.992-17.772c-7.889-15.721-8.501-27.634-8.501-27.634l26.715-0.997
						c0.555,8.206,2.006,21.57,2.448,26.296c0.635,6.755,79.409,13.556,81.11,11.856c1.7-1.7,10.768-9.43,24.369-5.282
						C324.941,355.706,334.326,364.365,339.653,369.919z"/>
					<path style="fill:#313384;" d="M195.973,256.988c15.145,8.992,18.209,28.969,21.609,51.496c3.4,22.527,3.4,22.527,3.4,22.527
						l-42.321,6.801c0,0-5.779-28.053-7.232-48.03C169.977,269.806,185.84,253.522,195.973,256.988z"/>
					<path style="fill:#4A60DE;" d="M211.118,440.891c-3.724-34.314,3.36-130.776-4.689-165.542
						c-2.76-11.92-11.493-19.824-17.183-24.585c-2.856-2.392-5.973-4.058-9.226-5.849c-2.188-1.201-9.362-5.871-12.06-5.35
						c0,0-27.924-1.214-40.226,4.545c-17.942,7.503-47.832,19.269-49.441,44.386c-3.219,50.142-0.627,106.226,2.667,161.427
						C135.237,461.952,172.73,461.719,211.118,440.891z"/>
					<polygon style="fill:#6B8CF4;" points="156.387,416.951 156.387,561.669 344.758,561.669 344.758,427.922 					"/>
					<path style="fill:#DEF2FF;" d="M126.576,402.419L333.63,423.71c-34-11.972-66.514-28.819-97.543-46.732L126.576,402.419z"/>
					<path style="fill:#B1D8FF;" d="M311.982,391.941l-36.129,15.275c-2.311,0.977-4.83,1.357-7.326,1.105l-78.351-7.919
						c-1.371-0.139-1.571-2.056-0.258-2.474l46.433-14.785c1.949-0.621,4.005-0.835,6.04-0.629l69.225,6.994
						C312.923,389.64,313.193,391.429,311.982,391.941z"/>
					<path style="fill:#313384;" d="M247.335,370.194c13.881,3.384,26.353,6.916,26.778,14.56
						c0.425,7.644-15.664,11.146-22.921,9.213c-7.257-1.933-23.834,0.251-23.834-8.121
						C227.358,377.474,236.883,367.646,247.335,370.194z"/>
					<path style="fill:#313384;" d="M182.505,145.555c5.4-0.652,10.619,2.096,15.035,5.272c5.314,3.822,8.719,9.986,8.24,16.628
						c-0.374,5.188-2.585,10.055-5.003,14.66c-1.542,2.937-3.248,5.897-5.845,7.961c0.022-0.018-1.874-4.312-2.021-4.735
						c-0.499-1.428-0.557-2.572-0.708-4.021c-0.23-2.207-1.178-4.518-1.762-6.658c-1.346-4.938-2.693-9.876-4.039-14.814
						C185.103,155.085,183.804,150.32,182.505,145.555z"/>
					<path style="fill:#FFBBCC;" d="M199.379,203.499c-0.159,2.403-0.385,4.772-0.714,7.084c-0.51,3.616-1.27,7.084-2.358,10.269
						c-0.329,0.986-0.691,1.938-1.099,2.856c-4.454,10.36-13.159,16.787-29.696,13.477c-4.364-3.321-7.719-7.005-8.013-11.697
						c-2.244-18.316-1.088-36.406,3.457-54.292c2.324-10.609,11.629-17.16,21.898-21.785c12.06,5.962,15.868,19.563,16.469,32.473
						C199.617,188.582,199.855,196.143,199.379,203.499z"/>
					<path style="fill:#FFBBCC;" d="M171.394,251.67c-0.567-9.918-1.596-7.559-5.758-15.01c0,0-2.742-9.359-5.014-10.001
						c-2.272-0.642-17.28,14.527-22.112,17.453c-2.124,1.286-2.046,3.81-1.291,6.234l0,0v0c0.962,3.09,3.023,6.02,3.023,6.02
						l3.23,0.308c2.114,1.769,4.703,3.635,7.714,5.21c8.694,4.546,14.451,7.922,14.451,7.922S171.961,261.588,171.394,251.67z"/>
					<path style="fill:#E2A0B8;" d="M157.503,225.491c-2.244-18.314-1.094-36.413,3.449-54.296
						c2.329-10.608,11.633-17.154,21.9-21.781c-1.9-0.939-3.998-1.695-6.328-2.222c-27.72-6.269-53.296,17.011-53.03,43.576
						c0.573,12.353,4.583,24.211,8.012,36.196c-2.291,13.855-3.576,18.221-3.364,27.64c2.796,0.391,6.635,0.597,10.779,0.635
						c6.546-7.844,15.775-13.711,23.789-20.393C159.777,232.129,157.724,229.111,157.503,225.491z"/>
					<path style="fill:#E286A5;" d="M142.063,205.395c-0.664-0.639-1.29-1.317-1.873-2.029c-0.19-0.222-0.283-0.401-0.277-0.466
						V202.9v-0.026c0.002-0.05,0.028-0.131,0.104-0.245c0.074-0.113,0.191-0.245,0.321-0.386c1.196-1.311,2.241-2.954,2.366-4.848
						l0.008-0.151v-0.001c0.035-1.001-0.256-2.011-0.804-2.842c-0.547-0.829-1.373-1.49-2.407-1.699
						c-0.105-0.021-0.21-0.035-0.316-0.041c-0.604-0.036-1.201,0.137-1.691,0.456c-0.483,0.317-0.895,0.817-0.94,1.472
						c-0.012,0.182,0.008,0.37,0.06,0.555l1.091-0.308l-0.02-0.175c0.007-0.18,0.145-0.408,0.432-0.597
						c0.279-0.186,0.671-0.296,0.997-0.272l0.164,0.021c0.683,0.137,1.267,0.583,1.685,1.213c0.416,0.627,0.645,1.427,0.617,2.176
						v-0.001l-0.006,0.121c-0.091,1.5-0.966,2.948-2.072,4.155c-0.131,0.144-0.288,0.313-0.429,0.524
						c-0.139,0.21-0.27,0.475-0.291,0.8l0,0.167l0-0.001c0.042,0.536,0.339,0.872,0.531,1.116c0.612,0.747,1.269,1.458,1.964,2.127
						L142.063,205.395L142.063,205.395z"/>
					<path style="fill:#313384;" d="M190.946,134.918c-3.39-1.229-7.034-1.442-11.02-3.29c-9.681-8.893-33.519-6.439-44.52-1.241
						c-6.488,3.066-13.4,11.022-16.704,17.393c-3.304,6.37-2.77,15.128,2.74,19.725c-8.629,4.596-11.702,15.996-9.65,25.555
						c1.142,5.32,3.546,10.264,6.406,14.86c1.45,2.329,3.021,4.58,4.635,6.798c0.784,1.077,1.658,2.117,2.388,3.23
						c0.304,0.462,0.534,0.898,0.881,1.325c1.115,1.371,2.804,2.529,4.189,3.616c0.274,0.215,3.084,2.086,3.043,2.228
						c0,0,4.586-15.95,4.586-15.95c-4.797-4.528-6.904-11.716-5.311-18.118c0.273-1.098,0.664-2.202,1.416-3.047
						c2.146-2.413,6.377-1.594,8.545,0.798c2.169,2.392,2.823,5.752,3.391,8.931c2.286-7.099,4.825-23.018,5.511-30.444
						c7.502-0.668,38.383,1.688,48.945-10.931C207.948,151.077,201.398,130.387,190.946,134.918z"/>
					<path style="fill:#313384;" d="M179.055,195.418c-0.134,2.116-1.549,3.749-3.159,3.647c-1.61-0.102-2.806-1.901-2.672-4.017
						c0.134-2.116,1.549-3.749,3.159-3.647C177.994,191.503,179.19,193.302,179.055,195.418z"/>
					<path style="fill:#313384;" d="M198.888,196.678c-0.134,2.116-1.549,3.749-3.159,3.647c-1.61-0.102-2.806-1.901-2.672-4.017
						c0.135-2.116,1.549-3.749,3.159-3.647C197.827,192.763,199.023,194.561,198.888,196.678z"/>
					<path style="fill:#313384;" d="M170.6,185.483c0.155-0.113,0.312-0.225,0.47-0.333c-0.322,0.221,0.184-0.116,0.242-0.153
						c0.325-0.204,0.657-0.399,0.994-0.583c0.674-0.369,1.371-0.695,2.085-0.979c0.179-0.071,0.359-0.137,0.539-0.204
						c-0.379,0.14,0.198-0.065,0.266-0.087c0.366-0.117,0.736-0.222,1.108-0.316c0.746-0.188,1.501-0.327,2.264-0.424
						c0.884-0.112,1.532-1.171,1.318-2.012c-0.242-0.95-1.064-1.437-2.012-1.317c-3.457,0.438-6.711,1.812-9.52,3.855
						c-0.722,0.525-0.748,1.779-0.152,2.4C168.888,186.047,169.83,186.043,170.6,185.483z"/>
					<path style="fill:#313384;" d="M193.922,184.077c0.505-0.012,1.006,0.032,1.501,0.128c-0.15-0.029-0.299-0.059-0.447-0.09
						c0.585,0.12,1.149,0.311,1.685,0.572c-0.131-0.066-0.263-0.131-0.395-0.196c0.246,0.123,0.484,0.259,0.714,0.409
						c0.373,0.243,0.858,0.346,1.296,0.254c0.401-0.083,0.846-0.36,1.064-0.715c0.475-0.776,0.335-1.842-0.461-2.36
						c-1.392-0.906-3.076-1.433-4.742-1.394c-0.46,0.011-0.876,0.107-1.232,0.421c-0.313,0.276-0.565,0.744-0.573,1.168
						c-0.009,0.44,0.107,0.905,0.42,1.231C193.05,183.813,193.476,184.087,193.922,184.077z"/>
					<path style="fill:#FFFFFF;" d="M144.617,140.438c-3.117,1.456-6.215,2.97-9.173,4.732c-0.939,0.56-1.768,1.051-2.519,1.812
						c-0.837,0.848-1.972,1.401-2.894,2.166c-1.952,1.619-3.585,3.625-4.759,5.874c-0.148,0.284-0.293,0.602-0.215,0.913
						c0.137,0.543,0.838,0.701,1.396,0.649c1.723-0.159,3.188-1.263,4.6-2.264c4.459-3.159,9.379-5.662,14.552-7.422
						c2.166-3.374,4.555-6.783,7.258-9.937C150.054,137.946,147.312,139.179,144.617,140.438z"/>
					<path style="fill:#FFFFFF;" d="M172.721,138.467c-1.6-1.815-3.84-2.806-6.243-3.251c-6.816,4.196-12.78,9.528-15.764,16.707
						c1.457-0.413,2.915-0.826,4.371-1.241c1.804-0.513,3.538-1.385,5.258-2.127c3.59-1.55,7.149-3.169,10.676-4.858
						c1.197-0.573,2.54-1.35,2.728-2.664C173.882,140.091,173.35,139.18,172.721,138.467z"/>
					<path style="fill:#E286A5;" d="M194.165,219.084c0.54-1.42-15.503,0-15.503,0C181.312,232.402,191.15,227.018,194.165,219.084z
						"/>
					<ellipse style="fill:#434AC0;" cx="137.218" cy="196.386" rx="12.183" ry="13.913"/>
					<path style="fill:#434AC0;" d="M199.379,203.499c-0.159,2.403-0.385,4.772-0.714,7.084c0.159,1.167,0.261,2.346,0.261,3.468
						c0,2.233-0.408,4.216-1.303,5.52c-0.298,0.428-0.651,0.777-1.056,1.077c-0.792-1.543-2.381-2.609-4.234-2.609
						c-2.638,0-4.776,2.138-4.776,4.776c0,2.638,2.139,4.776,4.776,4.776c2.577,0,4.663-2.045,4.758-4.598
						c1.536-0.83,2.594-2.145,3.206-3.66c0.657-1.598,0.895-3.412,0.895-5.282C201.181,210.345,200.263,206.389,199.379,203.499z"/>
					<path style="fill:#434AC0;" d="M195.865,221.101c0.159-0.079,0.306-0.159,0.442-0.249c-0.329,0.986-0.691,1.938-1.099,2.856
						c-0.703,0.17-1.474,0.249-2.301,0.249c-0.204,0-0.419,0-0.623-0.011l0.102-2.267c0.181,0.011,0.351,0.011,0.521,0.011
						C194.154,221.691,195.106,221.464,195.865,221.101z"/>
					<path style="fill:#434AC0;" d="M134.027,188.001c-2.304-21.34,5.74-42.889,19.145-53.083c13.405-10.194,37.774,0,37.774,0
						s-18.667-5.377-31.666,3.69c-12.999,9.068-18.858,23.41-19.382,49.393C135.124,189.897,134.027,188.001,134.027,188.001z"/>
					<ellipse style="fill:#5161C5;" cx="134.116" cy="196.493" rx="7.54" ry="8.611"/>
					<path style="fill:#313384;" d="M123.493,245.429c3.414-11.044,6.619-10.353,6.619-10.353s0.586,4.523,4.004,10.353
						c3.418,5.83,31.52,24.377,31.52,24.377s-8.105-1.984-9.249,0c-1.144,1.983-9.536,12.928-9.536,12.928
						s-13.43-12.343-19.727-24.263C120.827,246.551,123.493,245.429,123.493,245.429z"/>
					<path style="fill:#313384;" d="M165.636,269.806c6.042-12.468-0.497-29.873-0.497-29.873l1.529-4.865
						c0,0,7.773,1.524,11.35,14.164c3.577,12.64,4.487,32.192,4.487,32.192l-12.528-11.618H165.636z"/>
					<path style="fill:#FFBBCC;" d="M268.529,379.735c-4.25-1.7-14.882-4.25-14.882-4.25s12.751,6.801,13.182,11.482
						c0.419,3.4-0.431,4.545-4.25,3.276c0.419,5.951-14.032-1.7-19.983-1.7c6.801,5.101,14.451,5.101,13.601,7.651
						c-0.113,0.351-0.646,0.635-1.496,0.85c-5.339,1.36-23.451,0.193-33.357-2.006c-11.471-2.55-8.637-1.825-8.637-1.825
						s-66.534-0.567-81.835-3.117c-15.302-2.55-18.044-2.992-25.922-18.702c-7.889-15.721-11.051-28.053-11.051-28.053h40.215
						l8.603,17.002l68.404,9.555c0,0,5.123-1.632,15.324-4.182c10.201-2.55,38.231,1.553,45.905,10.201
						C275.749,379.735,272.78,381.435,268.529,379.735z"/>
					<path style="fill:#E2A0B8;" d="M256.197,396.193l-1.496,0.85c-5.339,1.36-23.451,0.193-33.357-2.006
						c-11.471-2.55-8.637-1.825-8.637-1.825s-66.534-0.567-81.835-3.117c-15.302-2.55-18.044-2.992-25.922-18.702
						c-7.889-15.721-11.051-28.053-11.051-28.053h28.177c1.519,6.245,6.019,24.46,7.424,26.806
						c1.7,2.834,87.468,13.828,97.862,15.698C237.745,387.714,256.197,396.193,256.197,396.193z"/>
					<path style="fill:#313384;" d="M93.893,269.895c14.363,2.045,29.552,9.776,36.666,33.578c7.114,23.802,8.601,42.93,8.601,42.93
						l-48.242,10.626c0,0-11.051-38.254-13.601-52.706C74.766,289.872,82.291,268.243,93.893,269.895z"/>
					<path style="fill:#313384;" d="M118.972,397.621"/>
					<g>
						<g>
							<path style="fill:#434AC0;" d="M422.119,203.608l-107.812,7.64c-2.025,0.112-3.695,1.653-3.971,3.664l-20.077,146.444
								c-0.32,2.336,1.322,4.315,3.472,4.656v0.028l0.16-0.001c0.333,0.039,0.674,0.036,1.025-0.01l7.718-0.074v-1.476
								l99.557-25.186c1.721-0.354,3.052-1.739,3.337-3.473l20.929-127.373C426.89,205.806,424.787,203.461,422.119,203.608z"/>
							<path style="fill:#313384;" d="M411.532,339.189l-106.96,26.71c-2.829,0.582-5.364-1.787-4.972-4.647l20.077-146.444
								c0.276-2.011,1.946-3.552,3.971-3.664l107.812-7.64c2.668-0.147,4.771,2.198,4.337,4.838l-20.929,127.373
								C414.584,337.45,413.253,338.835,411.532,339.189z"/>
						</g>
						<path style="fill:#434AC0;" d="M377.548,376.86c0,2.21-0.351,4.197-1.179,5.905c-0.125,0.239-0.249,0.478-0.385,0.706
							c-1.099,1.835-2.856,3.212-5.146,3.971c-1.542,0.514-3.31,0.769-5.35,0.788c-0.975,0.009-2.006-0.037-3.094-0.14
							c-12.57-1.149-35.092-3.698-35.092-3.698l0.272-2.258c0,0.011,1.406,0.168,3.718,0.418c0.521,0.063,1.088,0.126,1.689,0.188
							c2.074,0.229,4.636,0.511,7.424,0.813c7.197,0.781,15.959,1.706,22.216,2.292c1.031,0.092,1.983,0.128,2.868,0.12
							c2.788-0.027,4.851-0.545,6.302-1.421c0.295-0.173,0.578-0.368,0.827-0.586c0.997-0.792,1.666-1.83,2.108-3.149
							c0.363-1.114,0.555-2.42,0.555-3.927c0-0.306-0.011-0.612-0.023-0.94c-0.034-0.657-0.102-1.359-0.193-2.095
							c-0.125-0.883-0.283-1.822-0.499-2.806c-2.04-9.558-11.312-52.155-13.59-62.651c-0.329-1.504-0.51-2.341-0.51-2.341
							l2.21-0.509c0,0,0.204,0.95,0.567,2.636c2.392,10.971,11.516,52.89,13.545,62.368c0.261,1.233,0.465,2.421,0.589,3.553
							c0.091,0.725,0.136,1.416,0.159,2.095C377.548,376.418,377.548,376.645,377.548,376.86z"/>
						<path style="fill:#4A60DE;" d="M375.282,376.882c0,1.508-0.193,2.813-0.555,3.927c-0.442,1.319-1.111,2.357-2.108,3.149
							c-0.249,0.218-0.533,0.413-0.827,0.586c-1.451,0.875-3.514,1.394-6.302,1.421c-0.884,0.009-1.836-0.028-2.868-0.12
							c-6.257-0.586-15.018-1.511-22.216-2.292c-2.788-0.302-5.35-0.583-7.424-0.813c-0.601-0.062-1.168-0.125-1.689-0.188
							c-2.312-0.25-3.718-0.406-3.718-0.418l34.174-9.758c0,0,1.281,0.146,3.378,0.376c2.108,0.24,5.033,0.564,8.32,0.918
							c0.533,0.063,1.065,0.114,1.621,0.177c0.091,0.736,0.159,1.438,0.193,2.095C375.27,376.27,375.282,376.576,375.282,376.882z"
							/>
						<path style="fill:#313384;" d="M407.324,367.563c0,2.301-0.419,4.345-1.428,6.021c-0.748,1.265-1.836,2.285-3.219,3.012
							c-0.465,0.231-0.952,0.44-1.474,0.615c-0.476,0.163-0.975,0.293-1.496,0.4l-28.869,9.832c2.289-0.759,4.046-2.136,5.146-3.971
							c0.136-0.228,0.261-0.467,0.385-0.706c0.827-1.708,1.179-3.695,1.179-5.905c0-0.215,0-0.442-0.011-0.669
							c-0.023-0.68-0.068-1.371-0.159-2.095c-0.125-1.132-0.329-2.32-0.589-3.553c-2.029-9.479-11.153-51.397-13.545-62.368
							c-0.363-1.685-0.567-2.636-0.567-2.636l31.091-3.03c0,0,10.734,49.327,12.865,59.292
							C407.075,363.882,407.324,365.806,407.324,367.563z"/>
					</g>
					<polygon style="fill:#CFECFF;" points="126.576,402.419 126.576,413.754 336.809,436.299 336.809,423.884 					"/>
					<polygon style="fill:#5574E8;" points="466.843,364.478 466.843,558.865 342.491,558.865 342.491,425.118 					"/>
					<polygon style="fill:#B1D8FF;" points="336.809,423.884 336.809,436.299 474.309,364.57 474.309,356.745 					"/>
					<path style="fill:#FFFFFF;" d="M201.888,333.296l-13.754,3.413c-1.875,0.465-3.688-0.953-3.688-2.885v-29.337
						c0-1.366,0.931-2.556,2.256-2.885l13.753-3.413c1.875-0.465,3.688,0.953,3.688,2.885v29.337
						C204.145,331.777,203.214,332.967,201.888,333.296z"/>
					<path style="fill:#313384;" d="M196.308,304.445l-4.024,1.094v-9.967c0-0.908,0.608-1.703,1.484-1.941l0,0
						c1.279-0.348,2.539,0.616,2.539,1.941V304.445z"/>
					<polygon style="fill:#313384;" points="199.144,328.249 192.284,330.587 192.284,320.682 199.144,318.611 					"/>
					<g>
						<g>
							<path style="fill:#313384;" d="M349.992,376.599c0,1.439-9.782,2.607-21.842,2.607s-21.83-1.167-21.83-2.607
								c0-1.44,9.77-2.596,21.83-2.596S349.992,375.16,349.992,376.599z"/>
						</g>
						<path style="fill:#4A60DE;" d="M313.479,379.55c-2.582-14.364-8.961-26.571-8.961-26.571s13.185,5.341,20.001,12.156
							c6.816,6.815,3.755,17.65,3.755,17.65S321.009,383.993,313.479,379.55z"/>
						<path style="fill:#4A60DE;" d="M326.487,387.731c5.145-14.476,14.177-29.034,25.513-33.913
							c-8.225,11.945-9.824,33.553-9.824,33.553L326.487,387.731z"/>
						<path style="fill:#3244AC;" d="M321.475,381.487c-1.21-24.135,9.249-38.329,9.249-38.329
							c9.177,15.543,4.357,43.879,4.357,43.879L321.475,381.487z"/>
						<path style="fill:#FFFFFF;" d="M349.99,376.595l-4.67,35.205c-5.894,2.301-11.879,3.321-17.943,3.162
							c-5.407-0.147-10.87-1.224-16.401-3.162l-4.659-35.205c0,1.122,5.996,2.086,14.384,2.448c2.324,0.102,4.829,0.159,7.447,0.159
							C340.209,379.202,349.99,378.035,349.99,376.595z"/>
						<path style="fill:#B1D8FF;" d="M349.99,376.595l-4.67,35.205c-5.894,2.301-11.879,3.321-17.943,3.162
							c-2.652-10.269-5.429-29.186-6.676-35.919c2.324,0.102,4.829,0.159,7.447,0.159
							C340.209,379.202,349.99,378.035,349.99,376.595z"/>
					</g>
					<path style="fill:#4868F1;" d="M451.356,319.02v10.029c0,0.155-0.104,0.29-0.253,0.329l-8.386,2.228
						c-0.216,0.057-0.428-0.106-0.428-0.329v-10.134c0-0.156,0.106-0.292,0.257-0.33l8.386-2.122
						C451.147,318.635,451.356,318.798,451.356,319.02z"/>
				</g>
			</g>
		</g>
		<g>
			<g>
				<path style="fill:#FFFFFF;" d="M359.522,149.231c0-19.659-19.41-35.595-43.354-35.595s-43.354,15.937-43.354,35.595
					c0,17.29,15.016,31.695,34.924,34.917c-4.89,6.936-9.81,14.643-8.288,15.629c1.842,1.194,15.372-8.56,24.647-15.556
					C344.252,181.162,359.522,166.665,359.522,149.231z"/>
			</g>
			<g>
				<path style="fill:#313384;" d="M301.092,149.224c0,3.605-2.923,6.528-6.528,6.528c-3.605,0-6.528-2.923-6.528-6.528
					c0-3.605,2.923-6.528,6.528-6.528C298.169,142.696,301.092,145.619,301.092,149.224z"/>
				<circle style="fill:#313384;" cx="315.806" cy="149.224" r="6.528"/>
				<circle style="fill:#313384;" cx="337.048" cy="149.224" r="6.528"/>
			</g>
		</g>
	</g>
</g>
</svg>
