<?xml version="1.0" encoding="UTF-8"?>
<svg id="Capa_1" data-name="Capa 1" xmlns="http://www.w3.org/2000/svg" viewBox="0 0 272.63 169.3">
  <rect x=".5" width="271.76" height="169.23" style="fill: #fafafa; stroke-width: 0px;"/>
  <g>
    <g>
      <path d="M.76.12v4.95l225.02.02s-7.05-3.93-14.89-5.03L.76.12Z" style="fill: #0c3d58; stroke-width: 0px;"/>
      <path d="M.76,9.57h231.62s3.8,3.32,5,4.99H.76s0-4.99,0-4.99Z" style="fill: #0c3d58; stroke-width: 0px;"/>
      <path d="M.76,19.03v5h242.35s-.43-1.33-2.53-4.99H.76Z" style="fill: #0c3d58; stroke-width: 0px;"/>
      <polygon points="37.98 28.55 38 33.49 64.88 33.49 64.85 28.55 37.98 28.55" style="fill: #0c3d58; stroke-width: 0px;"/>
      <polygon points="37.98 38 38 42.93 64.88 42.93 64.85 38 37.98 38" style="fill: #0c3d58; stroke-width: 0px;"/>
      <polygon points="38.05 47.51 38.07 52.44 64.94 52.44 64.92 47.51 38.05 47.51" style="fill: #0c3d58; stroke-width: 0px;"/>
      <polygon points="88.79 28.55 88.81 33.49 115.68 33.49 115.66 28.55 88.79 28.55" style="fill: #0c3d58; stroke-width: 0px;"/>
      <polygon points="88.79 38 88.81 42.93 115.68 42.93 115.66 38 88.79 38" style="fill: #0c3d58; stroke-width: 0px;"/>
      <polygon points="88.85 47.51 88.88 52.44 115.75 52.44 115.73 47.51 88.85 47.51" style="fill: #0c3d58; stroke-width: 0px;"/>
      <polygon points="37.92 56.95 37.94 61.89 64.81 61.89 64.79 56.95 37.92 56.95" style="fill: #0c3d58; stroke-width: 0px;"/>
      <polygon points="37.92 66.4 37.94 71.34 64.81 71.34 64.79 66.4 37.92 66.4" style="fill: #0c3d58; stroke-width: 0px;"/>
      <polygon points="37.92 77.44 37.94 80.64 65.11 80.64 65.09 77.44 37.92 77.44" style="fill: #0c3d58; stroke-width: 0px;"/>
      <polygon points="37.89 85.87 37.92 89.06 65.11 89.06 65.09 85.87 37.89 85.87" style="fill: #0c3d58; stroke-width: 0px;"/>
      <polygon points="37.86 94.13 37.88 97.32 65.06 97.31 65.04 94.12 37.86 94.13" style="fill: #0c3d58; stroke-width: 0px;"/>
      <polygon points="37.81 102.42 37.83 105.61 65.09 105.61 65.07 102.42 37.81 102.42" style="fill: #0c3d58; stroke-width: 0px;"/>
      <polygon points="88.54 85.87 88.56 89.06 115.43 89.06 115.41 85.87 88.54 85.87" style="fill: #0c3d58; stroke-width: 0px;"/>
      <polygon points="88.56 94.12 88.58 97.32 115.45 97.32 115.43 94.12 88.56 94.12" style="fill: #0c3d58; stroke-width: 0px;"/>
      <polygon points="88.56 102.42 88.58 105.61 115.45 105.61 115.43 102.42 88.56 102.42" style="fill: #0c3d58; stroke-width: 0px;"/>
      <polygon points="37.86 110.85 37.89 114.04 65.38 114.04 65.35 110.85 37.86 110.85" style="fill: #0c3d58; stroke-width: 0px;"/>
      <polygon points="37.7 119.21 37.72 122.4 65.21 122.4 65.18 119.21 37.7 119.21" style="fill: #0c3d58; stroke-width: 0px;"/>
      <polygon points="37.83 127.57 37.85 130.76 65.21 130.76 65.18 127.57 37.83 127.57" style="fill: #0c3d58; stroke-width: 0px;"/>
      <path d="M153.39,28.55h29.11l1.74,4.94-27.68.03s-.74-2.78-3.17-4.97Z" style="fill: #0c3d58; stroke-width: 0px;"/>
      <path d="M157.55,38.01s.22,2.79-.11,4.91l27.43.08s.24-3.03.13-5.04l-27.45.05Z" style="fill: #0c3d58; stroke-width: 0px;"/>
      <path d="M156.36,47.44s-1.32,3.38-3.44,4.99l29.9.03s1.2-2.79,1.55-4.98" style="fill: #0c3d58; stroke-width: 0px;"/>
      <path d="M245.11,29.94c-.12-.49-.25-.96-.38-1.41-10.64,0-21.28,0-31.91,0,.94.81,2.11,2.25,3.12,4.98,9.94,0,19.88,0,29.83-.01-.13-1.11-.34-2.3-.65-3.56Z" style="fill: #0c3d58; stroke-width: 0px;"/>
      <path d="M216.73,37.99s.09,4.1-.19,4.98l29.54.02s.28-3.32.08-5h-29.43Z" style="fill: #0c3d58; stroke-width: 0px;"/>
      <path d="M215.46,47.44s-.87,2.96-3.5,5.01h32.23s1.28-4.08,1.28-5h-30.01Z" style="fill: #0c3d58; stroke-width: 0px;"/>
      <path d="M88.66,56.91v5h150.61s2.04-2.73,3.04-4.96l-153.65-.04Z" style="fill: #0c3d58; stroke-width: 0px;"/>
      <path d="M88.66,66.4v4.99h140.19s3.69-2.08,6.41-4.99H88.66Z" style="fill: #0c3d58; stroke-width: 0px;"/>
      <polygon points="88.58 77.72 233.82 77.81 235.34 81.08 88.35 81.09 88.58 77.72" style="fill: #0c3d58; stroke-width: 0px;"/>
      <polygon points="156.29 86.09 240.1 86.06 240.39 89.38 157.89 89.41 156.29 86.09" style="fill: #0c3d58; stroke-width: 0px;"/>
      <polygon points="156.29 94.26 245.19 94.23 245.49 97.55 157.98 97.58 156.29 94.26" style="fill: #0c3d58; stroke-width: 0px;"/>
      <polygon points="156.29 102.82 243.85 102.78 244.15 106.1 157.96 106.14 156.29 102.82" style="fill: #0c3d58; stroke-width: 0px;"/>
      <polygon points="84.58 111.24 243.61 111.21 244.15 114.53 87.61 114.56 84.58 111.24" style="fill: #0c3d58; stroke-width: 0px;"/>
      <polygon points="84.19 119.28 243.22 119.25 243.77 122.57 87.22 122.6 84.19 119.28" style="fill: #0c3d58; stroke-width: 0px;"/>
      <polygon points="82.92 127.84 241.95 127.81 242.49 131.12 85.95 131.16 82.92 127.84" style="fill: #0c3d58; stroke-width: 0px;"/>
      <path d="M227.09,73.23l-1.41.65c19.76,6.73,15.42,42.11,15.42,42.11-.38,10.98,1.5,19.91,1.5,19.91h-26.14c-3.19-5.49-2.49-35.55-2.49-35.55,1.21-8.55-6.7-12.38-6.7-12.38l-18.81.4c10.22,45.37-40.17,47.58-40.17,47.58l-59.28.02v-62.74h-24.05v62.55h-26.95v-62.55H0v96.07h272.63v-96.07h-45.54Z" style="fill: #0c3d58; stroke-width: 0px;"/>
      <path d="M115.41,80.76l-.19,31.91h37.02c.72-.44,8.97-5.72,9.23-15.19.03-1.23.22-7.85-5-12.6-3.72-3.39-8.06-3.89-9.56-3.99l-31.51-.13Z" style="fill: #0c3d58; stroke-width: 0px;"/>
    </g>
    <g>
      <path d="M5.18,149.01h1.8v12.68h4.25l-.2,1.34h-5.84v-14.03Z" style="fill: #fff; stroke-width: 0px;"/>
      <path d="M15.29,152.34h1.8v10.69h-1.8v-10.69ZM15.3,148.39h1.8v2.17h-1.8v-2.17Z" style="fill: #fff; stroke-width: 0px;"/>
      <path d="M26.56,162.02c-.36.76-1.09,1.19-2.27,1.19-2.33,0-2.67-1.85-2.67-3.58v-3.96c0-2.06.88-3.49,2.94-3.49,1.28,0,1.85.52,2.04,1,.01-.27.04-.56.07-.83h1.71c-.03.71-.03,1.64-.03,3.19v11.11h-1.79v-4.62ZM23.43,155.59v4.1c0,1.14.28,2.14,1.46,2.14,1.45,0,1.68-1.25,1.68-2.64v-3.32c0-1.13-.05-2.32-1.58-2.32-1.29,0-1.56.93-1.56,2.04Z" style="fill: #fff; stroke-width: 0px;"/>
      <path d="M39.84,160.14c0,1.38,0,2.38.03,2.89h-1.71c-.04-.2-.07-.74-.07-1.11-.4.97-1.21,1.28-2.31,1.28s-2.5-.34-2.5-2.73v-8.13h1.8v7.74c0,1.27.41,1.77,1.36,1.77.9,0,1.62-.45,1.62-2.49v-7.01h1.8v7.8Z" style="fill: #fff; stroke-width: 0px;"/>
      <path d="M44.73,152.34h1.8v10.69h-1.8v-10.69ZM44.74,148.39h1.8v2.17h-1.8v-2.17Z" style="fill: #fff; stroke-width: 0px;"/>
      <path d="M57.76,148.39v11.89c0,1.27,0,2.15.03,2.75h-1.71c-.04-.2-.07-.79-.07-1.05-.33.66-.92,1.22-2.24,1.22-2.17,0-2.71-1.42-2.71-3.48v-4.38c0-1.89.9-3.17,2.89-3.17,1.1,0,1.73.37,2.02.8v-4.59h1.8ZM52.86,155.43v4.34c0,1.36.4,2.06,1.44,2.06,1.34,0,1.66-1.07,1.66-2.54v-3.51c0-1.18-.14-2.24-1.61-2.24-1.07,0-1.5.73-1.5,1.89Z" style="fill: #fff; stroke-width: 0px;"/>
      <path d="M68.43,161.18c0,.73.01,1.54.05,1.85h-1.67c-.06-.26-.12-.69-.14-.87-.41.79-1.21,1.04-2.1,1.04-1.86,0-2.6-1.37-2.6-3.02v-.19c0-2.42,1.81-3.27,4.1-3.27h.56v-1.69c0-.97-.2-1.58-1.21-1.58s-1.27.63-1.27,1.47v.29h-1.77v-.27c0-1.49.71-2.76,3.11-2.76,2.24,0,2.94,1.17,2.94,2.74v6.26ZM66.67,157.91h-.63c-1.46,0-2.33.51-2.33,2.05v.18c0,.95.36,1.72,1.36,1.72,1.18,0,1.59-.79,1.59-2.39v-1.57Z" style="fill: #fff; stroke-width: 0px;"/>
      <path d="M79.69,148.39v11.89c0,1.27,0,2.15.03,2.75h-1.71c-.04-.2-.07-.79-.07-1.05-.33.66-.92,1.22-2.24,1.22-2.17,0-2.71-1.42-2.71-3.48v-4.38c0-1.89.9-3.17,2.89-3.17,1.1,0,1.73.37,2.02.8v-4.59h1.8ZM74.79,155.43v4.34c0,1.36.4,2.06,1.44,2.06,1.34,0,1.66-1.07,1.66-2.54v-3.51c0-1.18-.14-2.24-1.61-2.24-1.07,0-1.5.73-1.5,1.89Z" style="fill: #fff; stroke-width: 0px;"/>
      <path d="M90.93,155.38v4.47c0,2.32-1.32,3.35-3.39,3.35s-3.32-1.02-3.32-3.29v-4.57c0-2.06,1.31-3.16,3.4-3.16s3.31,1.17,3.31,3.2ZM86.03,155.33v4.62c0,1.17.47,1.91,1.55,1.91,1,0,1.54-.57,1.54-1.93v-4.61c0-1.05-.42-1.81-1.54-1.81s-1.55.66-1.55,1.82Z" style="fill: #fff; stroke-width: 0px;"/>
      <path d="M95.45,155.98c0-1.72.01-2.69-.03-3.64h1.71c.03.28.06.95.06,1.67.48-1.32,1.58-1.79,2.71-1.82v1.84c-1.59.01-2.66.77-2.66,2.71v6.29h-1.8v-7.05Z" style="fill: #fff; stroke-width: 0px;"/>
      <path d="M105.21,158v1.75c0,1.06.25,2.17,1.52,2.17s1.44-.83,1.44-1.85v-.09h1.76v.08c0,1.24-.35,3.15-3.2,3.15-2.69,0-3.29-1.46-3.29-3.63v-3.98c0-1.62.68-3.41,3.32-3.41,2.48,0,3.21,1.53,3.21,3.41v2.41h-4.77ZM108.24,156.78v-1.34c0-1-.19-1.98-1.48-1.98-1.22,0-1.53.83-1.53,1.99v1.32h3.02Z" style="fill: #fff; stroke-width: 0px;"/>
      <path d="M115.72,159.85v.47c0,1.04.5,1.59,1.42,1.59.98,0,1.36-.51,1.36-1.49,0-1.03-.37-1.53-1.83-2.33-1.72-.94-2.52-1.7-2.52-3.18,0-1.58.92-2.74,3.02-2.74,2.28,0,2.98,1.2,2.98,2.81v.49h-1.75v-.59c0-.91-.32-1.42-1.25-1.42-.86,0-1.21.49-1.21,1.32s.31,1.2,1.6,1.91c1.89,1.03,2.78,1.77,2.78,3.54,0,1.94-1.05,2.97-3.26,2.97-2.52,0-3.16-1.39-3.16-2.86v-.48h1.82Z" style="fill: #fff; stroke-width: 0px;"/>
      <path d="M136.91,148.39v11.89c0,1.27,0,2.15.02,2.75h-1.71c-.04-.2-.07-.79-.07-1.05-.33.66-.92,1.22-2.24,1.22-2.17,0-2.71-1.42-2.71-3.48v-4.38c0-1.89.9-3.17,2.89-3.17,1.1,0,1.73.37,2.02.8v-4.59h1.8ZM132.01,155.43v4.34c0,1.36.4,2.06,1.44,2.06,1.34,0,1.66-1.07,1.66-2.54v-3.51c0-1.18-.14-2.24-1.61-2.24-1.07,0-1.5.73-1.5,1.89Z" style="fill: #fff; stroke-width: 0px;"/>
      <path d="M143.21,158v1.75c0,1.06.25,2.17,1.52,2.17s1.44-.83,1.44-1.85v-.09h1.76v.08c0,1.24-.35,3.15-3.2,3.15-2.69,0-3.29-1.46-3.29-3.63v-3.98c0-1.62.68-3.41,3.32-3.41,2.48,0,3.21,1.53,3.21,3.41v2.41h-4.77ZM146.23,156.78v-1.34c0-1-.19-1.98-1.48-1.98-1.22,0-1.53.83-1.53,1.99v1.32h3.02Z" style="fill: #fff; stroke-width: 0px;"/>
      <path d="M159.3,159.08v.81c0,1.32.55,2.03,1.73,2.03s1.69-.73,1.69-2.26c0-1.64-.43-2.28-2.21-3.43-1.81-1.17-2.72-1.88-2.72-3.95,0-1.78.64-3.48,3.29-3.47,2.51.01,3.18,1.4,3.18,3.18v.65h-1.78v-.61c0-1.16-.27-1.92-1.43-1.92s-1.46.84-1.46,1.94c0,1.3.31,1.8,1.86,2.77,2.34,1.47,3.08,2.29,3.08,4.62,0,1.97-.68,3.77-3.53,3.77s-3.5-1.48-3.5-3.33v-.81h1.8Z" style="fill: #fff; stroke-width: 0px;"/>
      <path d="M170.54,158v1.75c0,1.06.25,2.17,1.52,2.17s1.45-.83,1.45-1.85v-.09h1.76v.08c0,1.24-.35,3.15-3.2,3.15-2.68,0-3.29-1.46-3.29-3.63v-3.98c0-1.62.68-3.41,3.32-3.41,2.48,0,3.21,1.53,3.21,3.41v2.41h-4.77ZM173.57,156.78v-1.34c0-1-.19-1.98-1.48-1.98-1.22,0-1.54.83-1.54,1.99v1.32h3.02Z" style="fill: #fff; stroke-width: 0px;"/>
      <path d="M186.21,162.81c0,2.17-.29,4-3.51,4-2.68,0-3.19-1.5-3.19-2.66v-.05h1.81v.06c0,.53.24,1.38,1.47,1.38,1.33,0,1.62-.82,1.62-2.36v-1.38c-.34.73-1.03,1.12-2.17,1.12-1.96,0-2.72-1.19-2.72-3.27v-4.29c0-1.88.98-3.18,2.99-3.18,1.32,0,1.92.56,2.1,1.1,0-.3.06-.71.1-.93h1.55c-.03.59-.05,1.55-.05,2.81v7.65ZM181.33,155.43v4.09c0,1.37.43,2.05,1.4,2.05,1.47,0,1.7-1.22,1.7-2.66v-3.16c0-1.23-.16-2.21-1.53-2.21-1.1,0-1.57.68-1.57,1.89Z" style="fill: #fff; stroke-width: 0px;"/>
      <path d="M197.61,160.14c0,1.38,0,2.38.03,2.89h-1.71c-.04-.2-.07-.74-.07-1.11-.4.97-1.21,1.28-2.31,1.28s-2.5-.34-2.5-2.73v-8.13h1.8v7.74c0,1.27.41,1.77,1.37,1.77.9,0,1.62-.45,1.62-2.49v-7.01h1.8v7.8Z" style="fill: #fff; stroke-width: 0px;"/>
      <path d="M202.5,155.98c0-1.72.01-2.69-.03-3.64h1.71c.03.28.06.95.06,1.67.48-1.32,1.58-1.79,2.71-1.82v1.84c-1.59.01-2.66.77-2.66,2.71v6.29h-1.8v-7.05Z" style="fill: #fff; stroke-width: 0px;"/>
      <path d="M217.2,155.38v4.47c0,2.32-1.32,3.35-3.39,3.35s-3.32-1.02-3.32-3.29v-4.57c0-2.06,1.31-3.16,3.4-3.16s3.31,1.17,3.31,3.2ZM212.3,155.33v4.62c0,1.17.47,1.91,1.55,1.91,1,0,1.54-.57,1.54-1.93v-4.61c0-1.05-.42-1.81-1.54-1.81s-1.55.66-1.55,1.82Z" style="fill: #fff; stroke-width: 0px;"/>
      <path d="M222.97,159.85v.47c0,1.04.5,1.59,1.42,1.59.98,0,1.36-.51,1.36-1.49,0-1.03-.37-1.53-1.83-2.33-1.72-.94-2.52-1.7-2.52-3.18,0-1.58.92-2.74,3.02-2.74,2.28,0,2.98,1.2,2.98,2.81v.49h-1.75v-.59c0-.91-.32-1.42-1.25-1.42-.86,0-1.21.49-1.21,1.32s.31,1.2,1.6,1.91c1.89,1.03,2.78,1.77,2.78,3.54,0,1.94-1.05,2.97-3.26,2.97-2.52,0-3.16-1.39-3.16-2.86v-.48h1.82Z" style="fill: #fff; stroke-width: 0px;"/>
      <path d="M238.78,159.08v.81c0,1.32.55,2.03,1.73,2.03s1.69-.73,1.69-2.26c0-1.64-.43-2.28-2.21-3.43-1.81-1.17-2.72-1.88-2.72-3.95,0-1.78.64-3.48,3.29-3.47,2.51.01,3.18,1.4,3.18,3.18v.65h-1.78v-.61c0-1.16-.27-1.92-1.43-1.92s-1.46.84-1.46,1.94c0,1.3.31,1.8,1.86,2.77,2.34,1.47,3.08,2.29,3.08,4.62,0,1.97-.68,3.77-3.53,3.77s-3.5-1.48-3.5-3.33v-.81h1.8Z" style="fill: #fff; stroke-width: 0px;"/>
      <path d="M250.07,162.16v4.48h-1.8v-11.21c0-1.46,0-2.41-.03-3.08h1.71c.04.22.07.65.07,1.14.32-.72,1.01-1.31,2.33-1.31,1.76,0,2.62.99,2.62,3.1v4.53c0,2.37-1.1,3.39-2.81,3.39-1.28,0-1.83-.55-2.1-1.04ZM253.17,159.84v-4.51c0-1.29-.56-1.79-1.39-1.79-1.34,0-1.72.94-1.72,2.33v3.5c0,1.24.21,2.47,1.61,2.47,1.09,0,1.51-.73,1.51-2Z" style="fill: #fff; stroke-width: 0px;"/>
      <path d="M261.27,158.56l-.81,4.48h-1.82l2.77-14.03h2.56l2.89,14.03h-1.88l-.87-4.48h-2.84ZM263.88,157.18c-.59-3.09-1.01-5.47-1.17-6.8h-.07c-.06,1.08-.67,4.24-1.12,6.8h2.37Z" style="fill: #fff; stroke-width: 0px;"/>
    </g>
  </g>
</svg>